# xmcd
#
# Track frame offsets: 
#        150
#        14364
#        33381
#        64378
#        77723
#        94569
#        110130
#        124067
#        141754
#        157967
#        176962
#        198635
#        212659
#        229572
#
# Disc length: 3337 seconds
#
# Revision: 0
# Processed by: cddbd v1.5.2PL0 Copyright (c) Steve Scherf et al.
# Submitted via: ExactAudioCopyFreeDBPlugin 1.0
#
DISCID=c20d070e
DTITLE=Ht Roberts and Bruno Deneckere - Heroes and Has-beens
DYEAR=2014
DGENRE=Country
TTITLE0=The Frame
TTITLE1=The River And The Eagle
TTITLE2=Amsterdam
TTITLE3=She's In My Heart
TTITLE4=Fallow Fields
TTITLE5=Eye Of The Storm
TTITLE6=Back Into My Life Again
TTITLE7=Nashville
TTITLE8=Cowboy For Hire
TTITLE9=I Miss You, Ladies
TTITLE10=Love Will Do
TTITLE11=No Way (Falling Out Of Love)
TTITLE12=Such A Blue Night
TTITLE13=Below The Surface
EXTD=
EXTT0=
EXTT1=
EXTT2=
EXTT3=
EXTT4=
EXTT5=
EXTT6=
EXTT7=
EXTT8=
EXTT9=
EXTT10=
EXTT11=
EXTT12=
EXTT13=
PLAYORDER=
